<svg width="43" height="43" viewBox="0 0 43 43" fill="none" xmlns="http://www.w3.org/2000/svg">
<g clip-path="url(#clip0_10084_258)">
<path fill-rule="evenodd" clip-rule="evenodd" d="M35.6259 22.3831L5.87497 22.056C5.32271 22.05 4.87995 21.5973 4.88602 21.0451C4.89209 20.4928 5.3447 20.0501 5.89695 20.0561L35.7933 20.3848L24.2135 8.03258C23.8358 7.62966 23.8562 6.99682 24.2592 6.6191C24.6621 6.24138 25.2949 6.2618 25.6726 6.66472L38.8551 20.7266C39.2328 21.1295 39.2124 21.7623 38.8095 22.14L24.105 35.925C23.7021 36.3027 23.0692 36.2823 22.6915 35.8793C22.3138 35.4764 22.3342 34.8436 22.7371 34.4659L35.6259 22.3831Z" fill="#2A2A2A"/>
</g>
<defs>
<clipPath id="clip0_10084_258">
<rect width="30" height="30" fill="white" transform="translate(0 21.2133) rotate(-45)"/>
</clipPath>
</defs>
</svg>
