<svg width="43" height="43" viewBox="0 0 43 43" fill="none" xmlns="http://www.w3.org/2000/svg">
<g clip-path="url(#clip0_10084_221)">
<path fill-rule="evenodd" clip-rule="evenodd" d="M6.80057 22.3831L36.5515 22.056C37.1038 22.05 37.5466 21.5973 37.5405 21.0451C37.5344 20.4928 37.0818 20.0501 36.5296 20.0561L6.63322 20.3848L18.213 8.03258C18.5907 7.62966 18.5703 6.99682 18.1674 6.6191C17.7644 6.24138 17.1316 6.2618 16.7539 6.66472L3.57141 20.7266C3.19369 21.1295 3.21412 21.7623 3.61703 22.14L18.3215 35.925C18.7244 36.3027 19.3573 36.2823 19.735 35.8793C20.1127 35.4764 20.0923 34.8436 19.6894 34.4659L6.80057 22.3831Z" fill="#2A2A2A"/>
</g>
<defs>
<clipPath id="clip0_10084_221">
<rect width="30" height="30" fill="white" transform="matrix(-0.707107 -0.707107 -0.707107 0.707107 42.4265 21.2133)"/>
</clipPath>
</defs>
</svg>
