<svg width="32" height="32" viewBox="0 0 32 32" fill="none" xmlns="http://www.w3.org/2000/svg">
<path d="M12 29.3332C12.7363 29.3332 13.3333 28.7362 13.3333 27.9998C13.3333 27.2634 12.7363 26.6665 12 26.6665C11.2636 26.6665 10.6666 27.2634 10.6666 27.9998C10.6666 28.7362 11.2636 29.3332 12 29.3332Z" stroke="white" stroke-width="2" stroke-linecap="round" stroke-linejoin="round"/>
<path d="M26.6667 29.3332C27.4031 29.3332 28 28.7362 28 27.9998C28 27.2634 27.4031 26.6665 26.6667 26.6665C25.9303 26.6665 25.3334 27.2634 25.3334 27.9998C25.3334 28.7362 25.9303 29.3332 26.6667 29.3332Z" stroke="white" stroke-width="2" stroke-linecap="round" stroke-linejoin="round"/>
<path d="M1.33337 1.3335H6.66671L10.24 19.1868C10.362 19.8007 10.6959 20.3522 11.1834 20.7446C11.6709 21.137 12.281 21.3455 12.9067 21.3335H25.8667C26.4924 21.3455 27.1024 21.137 27.59 20.7446C28.0775 20.3522 28.4115 19.8007 28.5334 19.1868L30.6667 8.00016H8.00004" stroke="white" stroke-width="2" stroke-linecap="round" stroke-linejoin="round"/>
</svg>
