<svg width="20" height="21" viewBox="0 0 20 21" fill="none" xmlns="http://www.w3.org/2000/svg">
<path d="M14.2363 4.7217C14.2363 4.44081 14.3479 4.17142 14.5465 3.9728C14.7452 3.77418 15.0145 3.6626 15.2954 3.6626C15.5763 3.6626 15.8457 3.77418 16.0443 3.9728C16.2429 4.17142 16.3545 4.44081 16.3545 4.7217C16.3545 5.00259 16.2429 5.27197 16.0443 5.47059C15.8457 5.66921 15.5763 5.7808 15.2954 5.7808C15.0145 5.7808 14.7452 5.66921 14.5465 5.47059C14.3479 5.27197 14.2363 5.00259 14.2363 4.7217Z" fill="#111111"/>
<path fill-rule="evenodd" clip-rule="evenodd" d="M9.99996 4.98682C8.66573 4.98682 7.38615 5.51684 6.4427 6.46028C5.49926 7.40373 4.96924 8.68331 4.96924 10.0175C4.96924 11.3518 5.49926 12.6314 6.4427 13.5748C7.38615 14.5182 8.66573 15.0483 9.99996 15.0483C11.3342 15.0483 12.6138 14.5182 13.5572 13.5748C14.5007 12.6314 15.0307 11.3518 15.0307 10.0175C15.0307 8.68331 14.5007 7.40373 13.5572 6.46028C12.6138 5.51684 11.3342 4.98682 9.99996 4.98682ZM6.55789 10.0175C6.55789 9.10465 6.92054 8.22914 7.56605 7.58363C8.21156 6.93811 9.08707 6.57547 9.99996 6.57547C10.9129 6.57547 11.7884 6.93811 12.4339 7.58363C13.0794 8.22914 13.442 9.10465 13.442 10.0175C13.442 10.9304 13.0794 11.8059 12.4339 12.4515C11.7884 13.097 10.9129 13.4596 9.99996 13.4596C9.08707 13.4596 8.21156 13.097 7.56605 12.4515C6.92054 11.8059 6.55789 10.9304 6.55789 10.0175Z" fill="#111111"/>
<path fill-rule="evenodd" clip-rule="evenodd" d="M15.5687 0.307725C11.8676 -0.102575 8.13239 -0.102575 4.43122 0.307725C2.30031 0.546023 0.579275 2.2247 0.329327 4.3662C-0.109776 8.12027 -0.109776 11.9127 0.329327 15.6668C0.579275 17.8083 2.29925 19.487 4.43122 19.7253C8.13241 20.1351 11.8675 20.1351 15.5687 19.7253C17.6996 19.487 19.4207 17.8083 19.6706 15.6668C20.1098 11.9127 20.1098 8.12026 19.6706 4.3662C19.4207 2.2247 17.7007 0.546023 15.5687 0.307725ZM4.60703 1.88578C8.19135 1.48849 11.8086 1.48849 15.3929 1.88578C16.8015 2.04465 17.9295 3.15565 18.0936 4.55154C18.5183 8.18247 18.5183 11.8505 18.0936 15.4815C18.0087 16.1646 17.696 16.7992 17.2059 17.2827C16.7159 17.7662 16.0771 18.0704 15.3929 18.1462C11.8086 18.5435 8.19135 18.5435 4.60703 18.1462C3.92279 18.0704 3.28406 17.7662 2.79402 17.2827C2.30397 16.7992 1.99124 16.1646 1.90633 15.4815C1.48168 11.8505 1.48168 8.18247 1.90633 4.55154C1.99124 3.86838 2.30397 3.23378 2.79402 2.75028C3.28406 2.26677 3.92279 1.96152 4.60703 1.88578Z" fill="#111111"/>
</svg>
