<svg width="22" height="18" viewBox="0 0 22 18" fill="none" xmlns="http://www.w3.org/2000/svg">
<path fill-rule="evenodd" clip-rule="evenodd" d="M1.489 7.73048C7.30481 5.19653 11.1826 3.52583 13.1225 2.71839C18.663 0.415133 19.8202 0.015133 20.5644 0.000249262C20.8403 -0.00511507 21.111 0.0762228 21.3383 0.232807C21.4978 0.370338 21.5995 0.563045 21.623 0.772343C21.663 1.03264 21.6743 1.29656 21.6564 1.55932C21.3569 4.72211 20.0564 12.3668 19.396 15.8998C19.1169 17.3882 18.5662 17.8961 18.0323 17.9463C16.875 18.0523 15.9857 17.1798 14.8695 16.4449C13.1132 15.2933 12.1216 14.5844 10.4174 13.4533C8.44714 12.1509 9.72528 11.4421 10.8471 10.2775C11.1411 9.97234 16.2425 5.32862 16.343 4.90816C16.3562 4.84607 16.3547 4.78173 16.3385 4.72034C16.3224 4.65894 16.292 4.6022 16.2499 4.55467C16.1889 4.5165 16.1197 4.4931 16.048 4.48631C15.9763 4.47953 15.904 4.48956 15.8369 4.5156C15.662 4.55405 12.8577 6.40769 7.42389 10.0765C6.62761 10.6235 5.90637 10.8902 5.26016 10.8765C4.54761 10.8598 3.1783 10.4728 2.15876 10.1323C0.910389 9.72676 -0.0737883 9.51281 0.00435126 8.83002C0.0502427 8.47281 0.545123 8.1063 1.489 7.73048Z" fill="#111111"/>
</svg>
