<svg width="260" height="32" viewBox="0 0 260 32" fill="none" xmlns="http://www.w3.org/2000/svg">
<path d="M14.79 14.1577H23.4492C25.3138 16.4652 26.2461 18.8993 26.2461 21.4599C26.2461 24.4373 25.1497 26.9384 22.957 28.963C20.7791 30.9877 18.0941 32 14.9019 32C10.755 32 7.23465 30.4294 4.34079 27.2882C1.44693 24.147 0 20.321 0 15.8102C0 11.2845 1.46931 7.51803 4.40792 4.51082C7.36145 1.50361 11.0459 0 15.4613 0C16.9679 0 18.6386 0.305187 20.4733 0.915562V9.98186C19.0413 9.31193 17.7361 8.97697 16.5577 8.97697C14.4246 8.97697 12.6793 9.63945 11.3219 10.9644C9.97935 12.2894 9.30809 14.0088 9.30809 16.1228C9.30809 18.2815 9.9346 19.9935 11.1876 21.2589C12.4406 22.5243 14.1337 23.157 16.2668 23.157C17.6242 23.157 18.3029 22.7625 18.3029 21.9735C18.3029 21.378 17.8554 21.0803 16.9604 21.0803H14.79V14.1577Z" fill="white"/>
<path d="M46.2496 12.6169V19.4054H40.3201C39.5146 19.4054 38.9403 19.5245 38.5972 19.7627C38.2691 20.0009 38.105 20.4029 38.105 20.9686C38.105 21.6087 38.2765 22.033 38.6196 22.2415C38.9627 22.435 39.6638 22.5318 40.7229 22.5318H46.8313V31.2408H39.6936C36.3373 31.2408 33.7717 30.4443 31.9966 28.8514C30.2215 27.2435 29.3339 24.9286 29.3339 21.9065V9.95953C29.3339 7.04164 30.1692 4.77879 31.8399 3.17097C33.5255 1.56315 35.8898 0.759246 38.9329 0.759246H46.8313V9.51291H41.0361C39.4699 9.51291 38.6867 10.0191 38.6867 11.0314C38.6867 11.6269 38.8732 12.0437 39.2461 12.2819C39.619 12.5052 40.2828 12.6169 41.2375 12.6169H46.2496Z" fill="white"/>
<path d="M63.1429 15.9442V23.9833H60.525V31.2408H51.4406V11.8576C51.4406 8.10607 52.4624 5.19563 54.506 3.12631C56.5645 1.0421 59.4509 0 63.1652 0C66.7453 0 69.393 0.945336 71.1084 2.83601C72.8239 4.71179 73.6816 7.61479 73.6816 11.545V31.2408H64.5972V12.1479C64.5972 10.957 64.4555 10.1307 64.1721 9.66923C63.8887 9.20772 63.3815 8.97697 62.6506 8.97697C61.2335 8.97697 60.525 10.034 60.525 12.1479V15.9442H63.1429Z" fill="white"/>
<path d="M88.2702 8.95464V31.2408H79.1859V0.759246H90.8434C94.3936 0.759246 97.1457 1.63759 99.0998 3.39428C101.278 5.35939 102.367 7.85299 102.367 10.8751C102.367 13.9567 101.017 16.5545 98.3167 18.6685L103.552 31.2408H94.0207L89.6127 21.4152V13.5771H90.3287C92.2381 13.5771 93.1928 12.7583 93.1928 11.1207C93.1928 9.67667 92.0889 8.95464 89.8812 8.95464H88.2702Z" fill="white"/>
<path d="M105.991 31.2408V9.26727C105.991 6.54292 106.819 4.31728 108.475 2.59037C110.131 0.863457 112.279 0 114.919 0C118.052 0 120.461 1.43661 122.146 4.30984C123.176 2.76157 124.279 1.65992 125.458 1.00488C126.636 0.334962 128.091 0 129.821 0C132.566 0 134.669 0.863457 136.131 2.59037C137.593 4.31728 138.324 6.80344 138.324 10.0488V31.2408H129.239V11.411C129.239 10.4285 129.157 9.78088 128.993 9.46825C128.844 9.14073 128.531 8.97697 128.053 8.97697C127.158 8.97697 126.711 9.73622 126.711 11.2547V31.2408H117.627V11.411C117.627 10.4434 117.544 9.79577 117.38 9.46825C117.216 9.14073 116.896 8.97697 116.418 8.97697C115.523 8.97697 115.076 9.78832 115.076 11.411V31.2408H105.991Z" fill="white"/>
<path d="M154.926 15.9442V23.9833H152.308V31.2408H143.224V11.8576C143.224 8.10607 144.246 5.19563 146.289 3.12631C148.348 1.0421 151.234 0 154.948 0C158.528 0 161.176 0.945336 162.892 2.83601C164.607 4.71179 165.465 7.61479 165.465 11.545V31.2408H156.38V12.1479C156.38 10.957 156.239 10.1307 155.955 9.66923C155.672 9.20772 155.165 8.97697 154.434 8.97697C153.017 8.97697 152.308 10.034 152.308 12.1479V15.9442H154.926Z" fill="white"/>
<path d="M185.312 0.625262V9.31193C184.655 9.08862 184.148 8.97697 183.79 8.97697C183.104 8.97697 182.515 9.23005 182.022 9.73622C181.53 10.2424 181.284 10.8528 181.284 11.5673C181.284 12.1777 181.553 12.9518 182.09 13.8897L182.783 15.0956C184.036 17.2691 184.663 19.3682 184.663 21.3929C184.663 24.3554 183.604 26.8639 181.485 28.9184C179.382 30.9728 176.809 32 173.766 32C172.304 32 170.857 31.665 169.425 30.9951V22.1745C170.29 22.7253 171.059 23.0007 171.73 23.0007C172.52 23.0007 173.177 22.7774 173.699 22.3308C174.236 21.8693 174.504 21.2961 174.504 20.6113C174.504 20.1647 174.079 19.1896 173.229 17.686C171.871 15.304 171.193 12.9221 171.193 10.5401C171.193 7.6669 172.215 5.19563 174.258 3.12631C176.317 1.0421 178.771 0 181.62 0C182.873 0 184.103 0.208421 185.312 0.625262Z" fill="white"/>
<path d="M203.234 9.51291V31.2408H194.15V9.51291H187.191V0.759246H210.17V9.51291H203.234Z" fill="white"/>
<path d="M229.816 12.6169V19.4054H223.886C223.081 19.4054 222.507 19.5245 222.164 19.7627C221.835 20.0009 221.671 20.4029 221.671 20.9686C221.671 21.6087 221.843 22.033 222.186 22.2415C222.529 22.435 223.23 22.5318 224.289 22.5318H230.398V31.2408H223.26C219.904 31.2408 217.338 30.4443 215.563 28.8514C213.788 27.2435 212.9 24.9286 212.9 21.9065V9.95953C212.9 7.04164 213.736 4.77879 215.406 3.17097C217.092 1.56315 219.456 0.759246 222.499 0.759246H230.398V9.51291H224.602C223.036 9.51291 222.253 10.0191 222.253 11.0314C222.253 11.6269 222.439 12.0437 222.812 12.2819C223.185 12.5052 223.849 12.6169 224.804 12.6169H229.816Z" fill="white"/>
<path d="M244.718 8.95464V31.2408H235.633V0.759246H247.291C250.841 0.759246 253.593 1.63759 255.547 3.39428C257.725 5.35939 258.814 7.85299 258.814 10.8751C258.814 13.9567 257.464 16.5545 254.764 18.6685L260 31.2408H250.468L246.06 21.4152V13.5771H246.776C248.686 13.5771 249.64 12.7583 249.64 11.1207C249.64 9.67667 248.536 8.95464 246.329 8.95464H244.718Z" fill="white"/>
</svg>
